<?xml version="1.0" encoding="UTF-8"?>
<svg id="Capa_2" data-name="Capa 2" xmlns="http://www.w3.org/2000/svg" viewBox="0 0 266.55 430.63">
  <defs>
    <style>
      .cls-1 {
        fill: #fff4f4;
      }

      .cls-2 {
        fill: #ff1d25;
      }
    </style>
  </defs>
  <g id="Logo">
    <path class="cls-2" d="M266.55,24.03V319.58c0,20.99-12.16,40.07-31.18,48.94l-109.07,50.87c-37.17,17.33-80.61,14.48-115.19-7.55h0C4.19,407.43,0,399.8,0,391.6V145.06C0,124.07,12.16,104.99,31.18,96.12L232.41,2.28c15.91-7.42,34.14,4.2,34.14,21.75Z"/>
    <g>
      <path class="cls-1" d="M159.9,191.02l8.47-3.95,20.67-9.64,13.07-6.09c4.64-2.16,7.6-6.82,7.6-11.93V53.73l-20.68,9.64-20.67,9.64-13.07,6.09c-4.64,2.16-7.6,6.82-7.6,11.93v96.63c0,5.12-2.97,9.77-7.6,11.93l-13.07,6.09-12.53,5.85-8.14,3.8V124.08l-20.68,9.64-20.67,9.64-13.07,6.09c-4.64,2.16-7.6,6.82-7.6,11.93v174.11l41.34-19.28,13.08-6.1c4.64-2.16,7.6-6.82,7.6-11.93v-82.78c1.52,0,3.03,.07,4.53,.2,38.87,3.41,69.66,50.38,69.66,107.83,0,15.12-2.13,29.52-5.99,42.59l14.49-6.76,20.68-9.64,16.4-7.64c3.93-13.17,6.11-27.7,6.11-42.97,0-58.75-32.22-106.55-72.33-107.99Z"/>
      <circle class="cls-1" cx="75.34" cy="352.86" r="13.17" transform="translate(-55.55 16.62) rotate(-9.22)"/>
    </g>
  </g>
</svg>