<?xml version="1.0" encoding="UTF-8"?>
<svg id="Capa_2" data-name="Capa 2" xmlns="http://www.w3.org/2000/svg" viewBox="0 0 1450 1450">
  <defs>
    <style>
      .cls-1 {
        fill: #fff4f4;
      }
    </style>
  </defs>
  <g id="Logo">
    <path class="cls-1" d="M725,0C324.59,0,0,324.59,0,725s324.59,725,725,725,725-324.59,725-725S1125.41,0,725,0Zm-226.73,1287.5c-26.2,0-47.43-21.24-47.43-47.43s21.24-47.43,47.43-47.43,47.43,21.24,47.43,47.43-21.24,47.43-47.43,47.43Zm543.16-86.61l-59.07,27.53-74.49,34.72-52.2,24.36c13.9-47.07,21.58-98.94,21.58-153.41,0-206.96-110.94-376.17-250.95-388.45-5.41-.47-10.84-.71-16.32-.71v298.22c0,18.43-10.68,35.19-27.38,42.98l-47.11,21.97-148.93,69.44V550.34c0-18.43,10.68-35.2,27.39-42.99l47.08-21.95,74.47-34.72,74.49-34.74v328.72l29.31-13.68,45.15-21.06,47.1-21.95c16.71-7.79,27.39-24.55,27.39-42.99V296.9c0-18.43,10.68-35.2,27.39-42.99l47.08-21.95,74.47-34.72,74.49-34.74v380.67c0,18.44-10.68,35.2-27.39,42.99l-47.1,21.95-74.47,34.74-30.51,14.22c144.49,5.2,260.54,177.38,260.54,389.03,0,55-7.85,107.36-22.01,154.79Z"/>
  </g>
</svg>