<?xml version="1.0" encoding="UTF-8"?>
<svg id="Capa_2" data-name="Capa 2" xmlns="http://www.w3.org/2000/svg" viewBox="0 0 999.04 777.51">
  <defs>
    <style>
      .cls-1 {
        fill: #1a1414;
      }
    </style>
  </defs>
  <g id="Logo">
    <path class="cls-1" d="M838.74,777.51c-3.01-.56-6.04-.99-9.02-1.69-17.81-4.18-29.24-15.71-36.47-31.94-6.44-14.45-9.14-29.81-9.79-45.46-.52-12.39-.08-24.82-.03-37.23,.02-5.4-1.36-9.73-6.13-13.29-12.93-9.67-25.88-19.39-38.01-30.03-9.3-8.16-17.58-17.53-25.9-26.73-21.06-23.28-40.09-48.08-55.54-75.51-8.59-15.25-15.18-31.38-21.68-47.59-7.07-17.64-14.37-35.27-26.26-50.34-20.13-25.53-46.25-41.18-78.71-45.09-11.19-1.35-22.6-.81-33.9-1.38-32.27-1.64-64.02-6.35-94.78-16.59-29.32-9.77-55.86-24.61-79.02-45.07-12.02-10.61-23.21-22.15-34.82-33.22-5.89-5.61-11.88-11.1-17.83-16.64-.32-.3-.68-.56-1.02-.84-7.88-6.33-10.06-6.3-17.09,.84-12.23,12.44-26.59,20.78-44.09,23.08-14.53,1.91-28.91,1.02-43.21-2.2-14.74-3.31-28.83-8.49-42.58-14.61-14.03-6.24-27.91-12.84-41.94-19.09-3.78-1.69-7.81-2.94-11.85-3.9-6.3-1.5-9.22,.11-11.45,6.23-1.05,2.86-1.7,5.92-2.09,8.94-1.64,12.62-6.53,19.23-23.87,16.08-12.02-2.18-21.04-9.18-27.26-19.56-6.83-11.38-5.09-22.78,1.02-33.8,5.58-10.06,14.51-16.41,24.93-20.57,25.93-10.35,52.55-12.54,79.81-6.1,3.09,.73,6.24,1.29,9.39,1.69,4.1,.53,7.19-1.36,9.66-4.51,4.82-6.14,6.13-23.93-2.77-30.68-2.83-2.15-6.2-3.67-9.49-5.1-9.9-4.29-20.02-5.56-30.42-1.67-2.15,.8-4.49,1.07-6.68,1.76-9.86,3.14-18.33,.35-24.65-7.21-8.39-10.03-18.62-17.6-29.37-24.7-4.63-3.06-8.04-7.12-9.22-12.74-1.24-5.87-.35-11.18,4.2-15.42,2.17-2.02,4.36-4.09,6.84-5.66,8.3-5.29,12.86-12.75,13.5-22.52,.56-8.47,4.9-14.53,12.49-17.5,13.85-5.43,22.27-15.84,28.61-28.6,2.39-4.81,4.94-9.56,7.79-14.11,3.14-5.01,5.62-5.31,9.59-1.08,3.53,3.75,6.61,7.92,9.87,11.92,6.18,7.58,8.45,7.66,14.87,.42,2.62-2.96,5.12-6.04,7.81-8.94,1.56-1.68,3.25-3.31,5.13-4.62,4.91-3.44,7.06-3.17,10.16,1.98,5.04,8.36,9.66,16.97,14.56,25.41,.62,1.06,1.89,2.38,2.92,2.45,23.35,1.51,45.65,7.44,67.44,15.63,31.18,11.73,60.2,27.65,88.22,45.5,33.7,21.47,65.4,45.64,95.93,71.35,14.21,11.96,27.97,24.44,42.12,36.48,24.34,20.71,48.37,41.84,75.81,58.56,24.14,14.71,48.95,28.11,75.76,37.35,23.93,8.25,48.58,12.1,73.93,9.66,14.22-1.36,27.3-6.44,39.52-13.68,30.24-17.93,53.02-43.1,68.68-74.24,10.62-21.13,19.27-43.27,28.55-65.07,10.38-24.37,21.49-48.33,36.18-70.49,22.52-33.95,51.63-60.55,88-79.04,7.17-3.64,14.76-6.29,22.91-6.73,15.27-.81,27.07,8.25,30.3,23.17,.18,.83,.49,1.63,.75,2.44v10.55c-.22,.71-.52,1.41-.66,2.14-3.23,16.37-10.84,30.2-24.61,39.92-7.42,5.23-15.44,9.66-23.43,14.01-15.12,8.23-31.12,14.68-45.56,24.31-21.6,14.4-39.22,32.26-52.56,54.58-14.28,23.91-25.93,49.08-37.09,74.52-5.16,11.75-9.71,23.79-15.18,35.38-8.12,17.2-20.76,30.99-35.08,43.18-9.02,7.68-18.72,14.55-28.13,21.78-3.88,2.98-4.32,5.14-1.55,9.2,1.42,2.08,2.99,4.09,4.71,5.93,6.16,6.57,10.81,14.08,14.27,22.37,13.74,32.87,20.36,67.43,23.05,102.7,1.66,21.77,1.59,43.68,2.06,65.53,.18,8.56,2.15,16.49,6.42,23.88,2.64,4.56,5.4,9.05,7.93,13.67,3.95,7.21,9.49,12.87,16.29,17.37,3.02,2,6,4.08,9.11,5.93,11.41,6.8,16.32,16.95,16.04,30.03-.33,15.6,3.9,29.91,12.47,42.98,2.89,4.4,5.68,8.89,8.2,13.51,3.13,5.73,3.37,11.54,.46,17.66-1.91,4.02-3.37,8.38-4.21,12.75-2.27,11.89-.79,23.89-.23,35.82,.35,7.33-.68,9.6-7.07,12.14h-5.94Z"/>
  </g>
</svg>