<svg id="Layer_1" version="1.1" viewBox="0 0 30 30" xml:space="preserve" xmlns="http://www.w3.org/2000/svg" enable-background="new 0 0 30 30"><path d="M24 16v10c0 .6-.4 1-1 1H7c-.6 0-1-.4-1-1V16h8v9h2v-9h8zM14 9H5c-.6 0-1 .4-1 1v3c0 .6.4 1 1 1h9V9zm11 0h-9v5h9c.6 0 1-.4 1-1v-3c0-.6-.4-1-1-1zm-2.9-1.1.1-.4c.4-1 .3-2.2-.3-3.1-.6-.9-1.7-1.4-2.8-1.4-1.4 0-2.6.8-3.1 2.1L14 10h5c1.3 0 2.6-.8 3.1-2.1zm-4.2-2.1c.2-.5.7-.8 1.2-.8.4 0 .8.2 1.1.6.2.4.3.8.1 1.2l-.1.4c-.2.5-.7.8-1.2.8h-2l.9-2.2zM14 5.1C13.5 3.8 12.2 3 10.9 3c-1.1 0-2.2.5-2.8 1.5-.6.9-.7 2-.3 3.1l.1.4c.5 1.2 1.8 2 3.1 2h4.9L14 5.1zm-1.9.7L13 8h-2c-.5 0-1-.3-1.2-.8l-.2-.4c-.1-.4-.1-.9.2-1.2.2-.4.6-.6 1.1-.6.5 0 1 .3 1.2.8z" fill="#ff2929" class="fill-fd6a7e"></path></svg>