<?xml version="1.0" encoding="UTF-8"?>
<svg id="Capa_2" data-name="Capa 2" xmlns="http://www.w3.org/2000/svg" viewBox="0 0 1450 1450">
  <defs>
    <style>
      .cls-1 {
        fill: #fff4f4;
      }

      .cls-2 {
        fill: #ff1d25;
      }
    </style>
  </defs>
  <g id="Logo">
    <circle class="cls-2" cx="725" cy="725" r="725"/>
    <g>
      <path class="cls-1" d="M802.89,657.07l30.51-14.22,74.47-34.74,47.1-21.95c16.71-7.79,27.39-24.55,27.39-42.99V162.5l-74.49,34.74-74.47,34.72-47.08,21.95c-16.71,7.79-27.39,24.55-27.39,42.99v348.08c0,18.44-10.68,35.2-27.39,42.99l-47.1,21.95-45.15,21.06-29.31,13.68V415.94l-74.49,34.74-74.47,34.72-47.08,21.95c-16.71,7.79-27.39,24.55-27.39,42.99v627.19l148.93-69.44,47.11-21.97c16.7-7.79,27.38-24.55,27.38-42.98v-298.22c5.48,0,10.91,.24,16.32,.71,140.01,12.28,250.95,181.49,250.95,388.45,0,54.47-7.68,106.34-21.58,153.41l52.2-24.36,74.49-34.72,59.07-27.53c14.16-47.43,22.01-99.79,22.01-154.79,0-211.65-116.06-383.83-260.54-389.03Z"/>
      <circle class="cls-1" cx="498.27" cy="1240.07" r="47.43" transform="translate(-192.2 95.83) rotate(-9.22)"/>
    </g>
  </g>
</svg>