<?xml version="1.0" encoding="UTF-8"?>
<svg id="Capa_2" data-name="Capa 2" xmlns="http://www.w3.org/2000/svg" viewBox="0 0 1000 547.81">
  <defs>
    <style>
      .cls-1 {
        fill: #1a1414;
      }
    </style>
  </defs>
  <g id="Logo">
    <g>
      <path class="cls-1" d="M565.68,43.98c4.79-8.33,9.39-16.33,14-24.33,3.46-6.01,6.96-12.01,10.38-18.05C590.66,.53,591.29,0,592.63,0c69.75,.07,139.51-.04,209.26,.23,16.96,.07,33.67,2.72,49.51,9.3,11.25,4.67,20.95,11.38,27.61,21.83,6.74,10.59,8.66,22.33,7.83,34.63-2.16,31.9-18.24,56.38-41.49,76.85-18.61,16.38-40.42,26.94-64.03,34.04-.65,.19-1.29,.4-1.91,1.05,.98,.22,1.98,.41,2.95,.67,17.82,4.71,31.96,14.23,40.22,31.2,4.33,8.89,5.47,18.42,4.41,28.15-3.1,28.4-17.06,51.01-37.8,69.87-16.31,14.85-35.13,25.72-55.41,34.18-17.96,7.5-36.56,12.71-55.8,15.66-10.92,1.68-21.92,1.87-32.94,1.87-72.25,.03-144.49,.08-216.74,.12-3.8,0-7.61-.02-11.41,.05-1.06,.02-1.5-.37-1.75-1.35-3.65-14.39-7.32-28.77-10.97-43.15-.09-.37-.07-.77-.13-1.43,2.9-.24,5.74-.49,8.59-.69,10.85-.78,21.69-1.55,32.54-2.3,10.13-.7,20.26-1.36,30.39-2.08,12.16-.86,24.31-1.75,36.46-2.62,4.71-.33,9.41-.69,14.12-.91,1.73-.08,2.94-.55,3.72-2.23,.81-1.77,1.91-3.41,3.09-5.46-2.67-.21-5.03-.43-7.41-.57-11.84-.71-23.68-1.37-35.52-2.09-13.93-.85-27.86-1.76-41.79-2.62-9.61-.59-19.23-1.13-28.85-1.7-6.8-.4-13.6-.82-20.41-1.19-1.05-.06-1.67-.37-1.96-1.46-4.58-17.25-9.19-34.5-13.78-51.74-.1-.37-.13-.76-.23-1.37,3.6-.23,7.11-.47,10.63-.68,12.82-.76,25.64-1.52,38.46-2.26,9.88-.57,19.76-1.12,29.64-1.69,12.69-.74,25.38-1.5,38.07-2.25,9.75-.57,19.49-1.11,29.24-1.68,12.62-.74,25.25-1.49,37.87-2.24,2.42-.14,4.85-.2,7.25-.49,.76-.09,1.69-.65,2.11-1.28,1.24-1.83,2.25-3.8,3.61-6.16-115.6-7.29-230.81-14.56-346.25-21.85,.36-.72,.59-1.24,.87-1.72,4.86-8.46,9.75-16.9,14.58-25.37,.57-1.01,1.2-1.49,2.41-1.57,9.35-.57,18.7-1.21,28.05-1.83,13.27-.87,26.54-1.75,39.81-2.61,11.05-.72,22.1-1.39,33.15-2.11,11.31-.73,22.62-1.5,33.93-2.24,10.92-.71,21.84-1.38,32.76-2.09,11.25-.73,22.49-1.5,33.73-2.23,10.98-.71,21.97-1.38,32.96-2.09,11.25-.73,22.49-1.49,33.73-2.22,8.76-.57,17.52-1.12,26.28-1.69,11.44-.74,22.88-1.5,34.32-2.24,8.89-.58,17.79-1.13,26.68-1.7,4.77-.3,9.55-.54,14.31-.98,.85-.08,1.88-.81,2.39-1.54,1.23-1.75,2.21-3.69,3.55-6-36.51-2.37-72.66-4.72-109.15-7.09,.36-.72,.59-1.28,.9-1.81,10.89-18.89,21.79-37.76,32.64-56.67,.75-1.31,1.6-1.74,3.08-1.83,11.58-.67,23.15-1.47,34.72-2.21,8.96-.57,17.92-1.12,26.87-1.7,13.47-.87,26.94-1.76,40.41-2.63,4.05-.26,8.12-.43,12.16-.8,.8-.07,1.78-.74,2.24-1.42,1.22-1.84,2.2-3.83,3.5-6.16-36.41-2.55-72.49-5.08-108.9-7.63Zm26.97,235.66h2.37c10.81,0,21.63,.08,32.44-.04,4.9-.05,9.84-.15,14.69-.82,13.17-1.81,25.41-6.24,36.01-14.45,10.4-8.06,16.9-18.42,17.98-31.81,1.08-13.3-9.65-24.97-23.01-24.98-12.32,0-24.64,.04-36.96-.01-1.48,0-2.33,.39-3.1,1.73-13.1,22.81-26.27,45.58-39.42,68.37-.31,.54-.56,1.13-1,2.02Zm80.95-140.68c1.13,0,1.83,0,2.54,0,10.35-.03,20.7-.06,31.06-.11,6.5-.03,12.94-.72,19.24-2.37,12.74-3.34,23.95-9.27,31.96-20.05,6.4-8.61,9.8-18.16,7.59-29.08-1.68-8.34-8.56-17.6-20.98-17.18-9.68,.33-19.39,.05-29.08-.09-1.95-.03-3.01,.57-3.99,2.29-11.6,20.27-23.29,40.49-34.96,60.72-1.04,1.8-2.07,3.61-3.36,5.86Z"/>
      <path class="cls-1" d="M516,126.78c-78.12-5.13-156.21-10.26-234.56-15.41,.33-.71,.52-1.22,.79-1.69,4.86-8.45,9.75-16.89,14.58-25.37,.65-1.14,1.38-1.6,2.75-1.68,13.73-.81,27.46-1.73,41.19-2.59,11.25-.71,22.49-1.38,33.74-2.09,11.64-.73,23.27-1.5,34.91-2.23,9.22-.58,18.44-1.12,27.66-1.7,13.66-.86,27.33-1.75,40.99-2.62,7.19-.45,14.39-.87,21.58-1.32,1.08-.07,1.76,.04,2.1,1.35,4.71,18.09,9.5,36.16,14.25,54.24,.06,.24,0,.51,0,1.11Z"/>
      <path class="cls-1" d="M381.26,234.83c-3.2,5.54-6.2,10.75-9.22,15.95-6.53,11.27-13.09,22.52-19.56,33.82-.73,1.27-1.49,1.69-2.92,1.61-12.62-.78-25.24-1.5-37.87-2.21-10.4-.59-20.8-1.14-31.2-1.73-12.95-.73-25.9-1.49-38.85-2.22-10.34-.58-20.67-1.14-31.01-1.7-7.72-.42-15.44-.83-23.16-1.26-.38-.02-.75-.13-1.34-.23,.23-.56,.37-1.03,.6-1.44,4.92-8.57,9.88-17.12,14.78-25.71,.59-1.03,1.28-1.44,2.47-1.52,13.52-.98,27.04-2.04,40.56-3.05,12.87-.97,25.74-1.9,38.6-2.87,13-.99,25.99-2.02,38.98-3.01,9.47-.72,18.94-1.38,28.41-2.1,9.53-.72,19.07-1.48,28.6-2.22,.58-.05,1.17-.05,2.11-.1Z"/>
      <path class="cls-1" d="M356.24,420.16h21.96v39.47c1.5-1.24,2.58-2.17,3.7-3.04,15.99-12.3,39.64-11.21,55.31,2.54,16.18,14.2,21.48,37.19,13.31,58.16-4.89,12.55-12.77,22.53-25.76,27.25-13.48,4.9-26.87,4.68-39.39-3.23-2.62-1.66-4.78-4.05-7.11-6.15-.51-.46-.84-1.11-1.26-1.68-.19,.11-.38,.21-.57,.32v10.59h-20.19v-124.23Zm76.08,77.71c-.23-2.21-.28-4.46-.72-6.62-2.18-10.65-8.12-18.29-18.68-21.51-10.5-3.21-20.01-.96-27.82,6.91-11.39,11.47-10.97,31.69,.71,42.9,11.56,11.09,30.21,10.13,39.96-2.09,4.56-5.71,6.37-12.36,6.54-19.59Z"/>
      <path class="cls-1" d="M181.6,451.28c4.43,0,8.55,0,12.67,0,2.95,0,5.9,.09,8.85-.03,1.57-.07,2.24,.43,2.7,1.99,5.18,17.62,10.45,35.22,15.7,52.82,.22,.73,.5,1.45,.95,2.75,.37-1.13,.58-1.7,.73-2.28,4.72-17.55,9.47-35.09,14.1-52.66,.53-2.01,1.31-2.73,3.42-2.63,4.25,.19,8.52,.15,12.78,0,1.82-.06,2.46,.61,2.9,2.28,4.59,17.52,9.25,35.01,13.9,52.51,.19,.73,.45,1.44,.87,2.76,.51-1.46,.85-2.34,1.12-3.23,5.25-17.4,10.52-34.79,15.7-52.21,.48-1.61,1.17-2.12,2.82-2.1,6.42,.09,12.85,.04,19.27,.04,.64,0,1.28,.05,2.18,.09-1,2.77-1.91,5.35-2.85,7.91-10.14,27.69-20.3,55.37-30.36,83.08-.64,1.77-1.46,2.26-3.22,2.19-3.72-.13-7.46-.04-11.28-.04-5.86-20.23-11.68-40.34-17.51-60.44-.19,0-.38-.01-.57-.02-5.87,20.09-11.75,40.18-17.67,60.45-4.27,0-8.52,.06-12.76-.08-.52-.02-1.24-.99-1.48-1.65-5.24-14.38-10.42-28.77-15.61-43.16-5.53-15.31-11.05-30.63-16.58-45.94-.24-.67-.43-1.36-.75-2.4Z"/>
      <path class="cls-1" d="M138.33,359.62c.35-.69,.59-1.22,.87-1.71,4.83-8.39,9.69-16.77,14.48-25.19,.66-1.16,1.41-1.59,2.75-1.68,16.92-1.12,33.84-2.32,50.76-3.5,18.68-1.3,37.37-2.61,56.05-3.93,19.66-1.39,39.32-2.81,58.99-4.2,3.45-.24,6.91-.43,10.62-.66-.3,.64-.47,1.1-.71,1.52-7.33,12.62-14.69,25.22-21.99,37.85-.59,1.02-1.21,1.5-2.45,1.5-56.16,0-112.32,.05-168.48,.09-.19,0-.39-.04-.88-.08Z"/>
      <path class="cls-1" d="M926.09,507.87c.87,4.13,2.9,7.22,5.36,10.05,9.01,10.35,25.3,12.58,35.73,4.71,2.2-1.66,3.79-4.1,5.73-6.12,.49-.51,1.2-1.12,1.81-1.13,7.01-.08,14.02-.05,21.04-.03,.3,0,.61,.13,1.17,.26-.67,1.61-1.22,3.14-1.91,4.59-8.08,17.08-26.4,28.16-45.27,27.39-23.74-.97-43.24-18.71-46.55-42.33-3.02-21.57,8.05-43.2,26.92-52.62,26.19-13.08,56.88-.44,66.99,27.58,3.05,8.45,3.65,17.08,2.03,25.91-.28,1.51-1,1.78-2.38,1.78-22.68-.04-45.35-.03-68.03-.03h-2.63Zm-.47-18.1h51.58c-1.43-12.54-12.46-22.07-25.41-21.86-13.27,.21-23.88,9.47-26.17,21.86Z"/>
      <path class="cls-1" d="M184.79,507.87H112.2c.29,1.06,.44,1.94,.75,2.74,4.29,10.86,16.71,17.99,28.34,16.52,7.6-.96,13.69-4.16,17.82-10.76,.29-.47,.98-.98,1.49-.99,7.27-.04,14.55,0,21.82,.04,.12,0,.23,.11,.57,.29-.64,1.53-1.16,3.14-1.94,4.62-9.65,18.01-24.59,27.65-45.15,27.19-23.64-.53-43.22-18.55-46.56-42.03-3.23-22.74,9.08-45.4,29.36-54,25.7-10.91,54.28,1.48,64.19,27.82,3.48,9.26,4.22,18.69,1.9,28.58Zm-73.11-17.99h51.59c-.98-9.38-8.51-21.28-24.17-21.93-12.76-.53-24.71,8.03-27.42,21.93Z"/>
      <path class="cls-1" d="M678.65,462.73v-11.29h20.21v92.91h-20.16v-11.21c-.64,.46-.96,.63-1.21,.88-24.35,24.23-63.88,14.61-74.25-18.26-5.24-16.6-4.2-32.88,5.85-47.57,10.26-15.01,24.98-21.57,43.03-19.77,10.08,1,18.46,5.94,25.17,13.57,.29,.33,.45,.77,.67,1.15,.23-.14,.47-.28,.7-.42Zm-26.2,5.69c-6.44,.04-10.57,.9-14.43,2.88-12.18,6.27-18.53,22.32-14.04,36.19,3.4,10.5,10.55,17.3,21.5,19.28,10.48,1.89,19.51-1.25,26.19-9.75,5.66-7.2,7.03-15.59,5.87-24.51-1.85-14.19-12.98-24.05-25.09-24.09Z"/>
      <path class="cls-1" d="M558.91,544.43h-20.2v-11.37c-.73,.67-1.09,.99-1.44,1.33-8.61,8.33-18.97,12.87-30.87,13.16-19.39,.48-36.4-11.73-42.74-30.95-5.61-17.02-4.5-33.63,5.8-48.84,10.89-16.08,31.68-23.51,49.4-17.91,7.41,2.34,13.71,6.44,18.75,12.4,.2,.24,.29,.58,.43,.87,.19-.1,.37-.19,.56-.29v-11.3c.74-.1,1.24-.22,1.74-.22,5.64-.01,11.27,.02,16.91-.03,1.35-.01,1.81,.4,1.81,1.79-.03,30-.03,59.99-.03,89.99,0,.39-.06,.77-.11,1.39Zm-20.87-47.93c-.08-1.18-.14-2.35-.26-3.53-.07-.71-.21-1.42-.36-2.13-2.12-10.04-7.67-17.34-17.49-20.73-9.71-3.36-19.03-2.21-26.89,4.7-8.39,7.38-11.31,17.03-10.02,28.01,1.98,16.8,18.63,27.98,34.92,23.47,12.65-3.5,20.93-15.77,20.09-29.78Z"/>
      <path class="cls-1" d="M493.38,38.87c-54.85-3.44-109.43-6.86-164.19-10.3,.25-.57,.4-1.05,.65-1.48,4.89-8.51,9.82-17.01,14.67-25.55,.63-1.11,1.31-1.55,2.61-1.55,44.78,.06,89.55,.07,134.33,.15,.64,0,1.73,.56,1.86,1.06,3.39,12.42,6.67,24.86,10.07,37.66Z"/>
      <path class="cls-1" d="M22.14,544.42H.04c0-.86,0-1.62,0-2.39,0-29.42,.02-58.84-.04-88.26,0-1.95,.44-2.59,2.48-2.54,5.89,.14,11.79,.05,17.91,.05v8.15c.93-.79,1.45-1.19,1.93-1.64,6.2-5.79,13.41-9.14,21.98-9.68,17.2-1.08,32.85,10.16,36.64,26.94,1.2,5.32,1.81,10.87,1.88,16.33,.24,17.16,.1,34.33,.1,51.5,0,.45-.05,.9-.09,1.49h-22.13c0-.72,0-1.47,0-2.23,0-15.4,.15-30.8-.1-46.19-.08-4.79-.77-9.69-2.03-14.31-2.41-8.83-8.78-13.48-16.99-13.23-8.66,.27-16.01,5.77-17.83,14.2-1.1,5.07-1.46,10.37-1.54,15.58-.2,14.48-.07,28.96-.07,43.44,0,.85,0,1.69,0,2.78Z"/>
      <path class="cls-1" d="M711.13,544.41v-2.52c0-29.28,0-58.57,0-87.85q0-2.76,2.79-2.76c5.05,0,10.09,0,15.14,0h2.52v8.12c1.23-1.07,2.09-1.81,2.93-2.57,16.73-15.25,41.41-8.75,51.89,5.48,4.32,5.87,6.36,12.63,6.94,19.75,.52,6.32,.59,12.69,.63,19.03,.09,13.69,0,27.38,.07,41.07,.01,1.88-.49,2.45-2.41,2.41-6.48-.12-12.97-.04-19.8-.04,0-.94,0-1.76,0-2.57,0-14.61,0-29.22,0-43.83,0-5.45-.34-10.87-1.95-16.12-2.81-9.15-9.03-13.99-17.38-13.58-9.19,.45-16.35,6.39-18.01,15.49-.83,4.54-1.14,9.23-1.19,13.86-.15,14.74-.06,29.48-.06,44.22,0,.77,0,1.54,0,2.41h-22.13Z"/>
      <path class="cls-1" d="M898.73,514.32c-7.51,22.15-27.63,34.71-49.86,33.15-23.02-1.61-46.28-20.43-46.28-50.03,0-24.99,19.13-46.47,43.95-49.08,21.97-2.31,44.92,9.71,52.21,33.64-1.21,0-2.36,0-3.51,0-6.62,0-13.24,.04-19.86-.05-.74,0-1.81-.5-2.16-1.1-6.31-10.86-15.62-13.59-25.56-12.06-11.27,1.74-19.62,9.77-21.94,20.83-2.38,11.32-.48,21.68,8.03,30.09,7.94,7.85,20.72,9.83,29.78,4.87,3.94-2.16,6.9-5.35,9.49-8.96,.42-.59,1.27-1.24,1.93-1.25,7.86-.09,15.72-.06,23.78-.06Z"/>
      <path class="cls-1" d="M593.27,544.43h-21.88v-124.21h21.88v124.21Z"/>
    </g>
  </g>
</svg>