<?xml version="1.0" encoding="UTF-8"?>
<svg id="Capa_2" data-name="Capa 2" xmlns="http://www.w3.org/2000/svg" viewBox="0 0 2238.5 240.36">
  <defs>
    <style>
      .cls-1 {
        fill: #fff4f4;
      }

      .cls-2 {
        fill: #ff1d25;
      }
    </style>
  </defs>
  <g id="Logo">
    <g>
      <path class="cls-1" d="M0,3.79H43.38V236.35H0V3.79ZM183.18,70.53l-98.76,87.08,1-26.69,105.44,105.44h-55.05L44.38,143.26,124.12,70.53h59.06Z"/>
      <path class="cls-1" d="M294.29,240.02c-16.46,0-31.42-3.62-44.88-10.84-13.46-7.23-24.14-17.35-32.03-30.36-7.9-13.01-11.84-28.08-11.84-45.21s4-32.81,12.01-45.71c8.01-12.9,18.85-22.97,32.53-30.2,13.68-7.23,29.2-10.84,46.54-10.84,19.13,0,34.53,3.84,46.21,11.51,11.68,7.67,20.19,18.08,25.52,31.2,5.34,13.13,8.01,27.81,8.01,44.04,0,9.79-1.56,19.74-4.67,29.86-3.12,10.12-7.9,19.47-14.35,28.03-6.45,8.57-14.91,15.46-25.36,20.69-10.46,5.22-23.02,7.84-37.7,7.84Zm14.01-33.37c13.12,0,24.47-2.22,34.03-6.67,9.56-4.45,16.9-10.68,22.02-18.68,5.11-8.01,7.67-17.24,7.67-27.69,0-11.34-2.62-20.96-7.84-28.86-5.23-7.89-12.57-13.9-22.02-18.02-9.46-4.11-20.74-6.17-33.87-6.17-18.47,0-32.81,4.84-43.04,14.51-10.23,9.68-15.35,22.52-15.35,38.54,0,10.68,2.45,19.97,7.34,27.86,4.89,7.9,11.73,14.07,20.52,18.52,8.79,4.45,18.96,6.67,30.53,6.67Zm63.73-136.13h43.38V236.35h-40.37c-1.12-8.67-1.89-16.35-2.34-23.02-.45-6.67-.67-13.23-.67-19.69V70.53Z"/>
      <path class="cls-1" d="M454.77,70.53h43.38V236.35h-43.38V70.53Zm120.45-3.67c10.23,0,19.69,1.33,28.36,4,8.67,2.67,16.23,6.79,22.69,12.35,6.45,5.56,11.45,12.63,15.01,21.19,3.56,8.57,5.34,18.74,5.34,30.53v101.43h-43.38v-93.76c0-14.01-3.39-24.3-10.18-30.86-6.79-6.56-17.85-9.84-33.2-9.84-11.57,0-22.02,2.23-31.36,6.67-9.34,4.45-16.91,10.07-22.69,16.85-5.79,6.79-9.12,13.85-10.01,21.19l-.33-17.02c1.11-7.78,3.67-15.35,7.67-22.69,4-7.34,9.39-14.07,16.18-20.19,6.78-6.12,14.85-10.95,24.19-14.51,9.34-3.56,19.91-5.34,31.7-5.34Z"/>
      <path class="cls-1" d="M882.86,170.96c-1.12,14.46-5.73,26.92-13.85,37.37-8.12,10.46-19.3,18.41-33.53,23.86-14.24,5.45-31.15,8.17-50.72,8.17s-38.76-3.28-54.89-9.84c-16.13-6.56-28.81-16.24-38.04-29.03-9.23-12.79-13.85-28.64-13.85-47.55s4.61-34.81,13.85-47.71c9.23-12.9,21.91-22.69,38.04-29.36,16.12-6.67,34.42-10.01,54.89-10.01s36.37,2.73,50.38,8.17c14.01,5.45,25.08,13.29,33.2,23.52,8.12,10.23,12.85,22.58,14.18,37.04h-39.71c-3.78-11.12-10.79-19.8-21.02-26.03-10.23-6.22-22.58-9.34-37.04-9.34-11.57,0-22.08,2-31.53,6.01-9.46,4-17.02,9.96-22.69,17.85-5.67,7.9-8.51,17.85-8.51,29.86s2.78,21.64,8.34,29.53c5.56,7.9,13.12,13.79,22.69,17.68,9.56,3.89,20.13,5.84,31.7,5.84,15.57,0,28.3-3.11,38.2-9.34,9.9-6.22,16.63-15.12,20.19-26.69h39.71Z"/>
      <path class="cls-1" d="M917.89,236.35V3.79h43.38V236.35h-43.38Zm148.48,0v-91.09c0-9.12-1.56-16.68-4.67-22.69-3.12-6.01-8.06-10.56-14.85-13.68-6.79-3.11-15.85-4.67-27.19-4.67s-20.8,2.06-29.7,6.17c-8.9,4.12-16.13,9.46-21.69,16.02-5.56,6.56-8.67,13.51-9.34,20.85l-.33-18.35c1.11-7.34,3.67-14.68,7.67-22.02,4-7.34,9.34-14.01,16.02-20.02,6.67-6.01,14.73-10.84,24.19-14.51,9.45-3.67,20.07-5.51,31.87-5.51,10.23,0,19.69,1.28,28.36,3.84,8.68,2.56,16.24,6.51,22.69,11.85,6.45,5.34,11.45,11.96,15.01,19.85,3.56,7.9,5.34,17.18,5.34,27.86v106.1h-43.38Z"/>
      <path class="cls-1" d="M1229.86,240.02c-16.46,0-31.42-3.62-44.88-10.84-13.46-7.23-24.14-17.35-32.03-30.36-7.9-13.01-11.84-28.08-11.84-45.21s4-32.81,12.01-45.71c8.01-12.9,18.85-22.97,32.53-30.2,13.68-7.23,29.2-10.84,46.55-10.84,19.13,0,34.53,3.84,46.21,11.51,11.68,7.67,20.19,18.08,25.52,31.2,5.34,13.13,8.01,27.81,8.01,44.04,0,9.79-1.56,19.74-4.67,29.86-3.12,10.12-7.9,19.47-14.35,28.03-6.45,8.57-14.91,15.46-25.36,20.69-10.46,5.22-23.02,7.84-37.7,7.84Zm14.01-33.37c13.12,0,24.47-2.22,34.03-6.67,9.56-4.45,16.9-10.68,22.02-18.68,5.12-8.01,7.67-17.24,7.67-27.69,0-11.34-2.62-20.96-7.84-28.86-5.23-7.89-12.57-13.9-22.02-18.02-9.46-4.11-20.74-6.17-33.87-6.17-18.47,0-32.81,4.84-43.04,14.51-10.23,9.68-15.35,22.52-15.35,38.54,0,10.68,2.45,19.97,7.34,27.86,4.89,7.9,11.73,14.07,20.52,18.52,8.79,4.45,18.96,6.67,30.53,6.67Zm63.73-136.13h43.38V236.35h-40.37c-1.12-8.67-1.89-16.35-2.34-23.02-.45-6.67-.67-13.23-.67-19.69V70.53Z"/>
      <path class="cls-1" d="M1667.62,170.96c-1.12,14.46-5.73,26.92-13.85,37.37-8.12,10.46-19.3,18.41-33.53,23.86-14.24,5.45-31.15,8.17-50.72,8.17s-38.76-3.28-54.89-9.84c-16.13-6.56-28.81-16.24-38.04-29.03-9.23-12.79-13.85-28.64-13.85-47.55s4.61-34.81,13.85-47.71c9.23-12.9,21.91-22.69,38.04-29.36,16.12-6.67,34.42-10.01,54.89-10.01s36.37,2.73,50.38,8.17c14.01,5.45,25.08,13.29,33.2,23.52,8.12,10.23,12.85,22.58,14.18,37.04h-39.71c-3.78-11.12-10.79-19.8-21.02-26.03-10.23-6.22-22.58-9.34-37.04-9.34-11.57,0-22.08,2-31.53,6.01-9.46,4-17.02,9.96-22.69,17.85-5.67,7.9-8.51,17.85-8.51,29.86s2.78,21.64,8.34,29.53c5.56,7.9,13.12,13.79,22.69,17.68,9.56,3.89,20.13,5.84,31.7,5.84,15.57,0,28.3-3.11,38.2-9.34,9.9-6.22,16.63-15.12,20.19-26.69h39.71Z"/>
      <path class="cls-1" d="M1702.98,3.79h43.38V236.35h-43.38V3.79Z"/>
      <path class="cls-1" d="M1940.88,156.61l.33,11.34c-.45,3.12-1.56,7.62-3.34,13.51-1.78,5.9-4.5,12.18-8.17,18.85-3.67,6.67-8.4,13.07-14.18,19.19-5.79,6.12-12.9,11.12-21.35,15.01-8.46,3.89-18.47,5.84-30.03,5.84-9.12,0-18.08-1.12-26.86-3.34-8.79-2.22-16.74-5.95-23.86-11.18-7.12-5.22-12.79-12.29-17.02-21.19-4.23-8.89-6.34-20.13-6.34-33.7V70.53h43.38v93.09c0,10.68,1.72,19.08,5.17,25.19,3.45,6.12,8.51,10.4,15.18,12.85,6.67,2.45,14.57,3.67,23.69,3.67,12.01,0,22.36-2.61,31.03-7.84,8.67-5.22,15.73-11.62,21.19-19.19,5.45-7.56,9.18-14.79,11.18-21.69Zm41.04,79.75h-43.38V70.53h43.38V236.35Z"/>
      <path class="cls-1" d="M2071.34,3.79V193.65c0,7.12-.33,14.74-1,22.86-.67,8.12-1.33,14.74-2,19.85h-40.37V3.79h43.38Zm77.74,236.23c-14.68,0-27.25-2.62-37.7-7.84-10.46-5.22-18.91-12.12-25.36-20.69-6.45-8.56-11.24-17.9-14.35-28.03-3.12-10.12-4.67-20.07-4.67-29.86,0-12.23,1.5-23.58,4.5-34.03,3-10.45,7.73-19.63,14.18-27.53,6.45-7.89,14.9-14.07,25.36-18.52,10.45-4.45,23.13-6.67,38.04-6.67,17.13,0,32.31,3.62,45.54,10.84,13.23,7.23,23.69,17.3,31.36,30.2,7.67,12.9,11.51,28.14,11.51,45.71s-3.89,32.2-11.68,45.21c-7.79,13.01-18.35,23.14-31.7,30.36-13.35,7.23-28.36,10.84-45.04,10.84Zm-14.01-33.37c11.79,0,22.02-2.22,30.7-6.67,8.67-4.45,15.4-10.62,20.19-18.52,4.78-7.89,7.17-17.18,7.17-27.86,0-16.02-5.06-28.91-15.18-38.7-10.12-9.79-24.42-14.68-42.88-14.68-12.9,0-24.14,2.12-33.7,6.34-9.57,4.23-16.96,10.29-22.19,18.18-5.23,7.9-7.84,17.52-7.84,28.86,0,10.46,2.55,19.69,7.67,27.69,5.11,8.01,12.46,14.24,22.02,18.68,9.56,4.45,20.91,6.67,34.03,6.67Z"/>
    </g>
    <g>
      <path class="cls-2" d="M2151.4,0h34.86V5.67h-34.86V0Zm14.06,4.96h6.8v28.12h-6.8V4.96Z"/>
      <path class="cls-2" d="M2215.91,29.7h-3.22l19.02-29.7h6.8V33.08h-6.8V9.05l1.64,.46-15.18,23.57h-7.62l-15.18-23.46,1.64-.46v23.92h-6.8V0h6.8l18.91,29.7Z"/>
    </g>
  </g>
</svg>