<?xml version="1.0" encoding="UTF-8"?>
<svg id="Capa_2" data-name="Capa 2" xmlns="http://www.w3.org/2000/svg" viewBox="0 0 1305.88 300">
  <defs>
    <style>
      .cls-1 {
        fill: #fff4f4;
      }

      .cls-2 {
        fill: #ff1d25;
      }
    </style>
  </defs>
  <g id="Logo">
    <g>
      <path class="cls-1" d="M388.32,56.75h29.46V214.7h-29.46V56.75Zm124.41,45.32l-67.08,59.15,.68-18.13,71.61,71.61h-37.39l-62.09-63.23,54.16-49.4h40.11Z"/>
      <path class="cls-1" d="M588.19,217.19c-11.18,0-21.34-2.46-30.48-7.37-9.14-4.91-16.39-11.78-21.75-20.62-5.36-8.84-8.04-19.07-8.04-30.71s2.72-22.28,8.16-31.05c5.44-8.76,12.8-15.6,22.09-20.51,9.29-4.91,19.83-7.37,31.61-7.37,12.99,0,23.45,2.61,31.39,7.82,7.93,5.21,13.71,12.28,17.34,21.19,3.63,8.92,5.44,18.89,5.44,29.91,0,6.65-1.06,13.41-3.17,20.28-2.12,6.88-5.36,13.22-9.74,19.04-4.38,5.82-10.12,10.5-17.22,14.05-7.1,3.55-15.64,5.33-25.61,5.33Zm9.52-22.66c8.91,0,16.62-1.51,23.11-4.53,6.49-3.02,11.48-7.25,14.96-12.69,3.47-5.44,5.21-11.71,5.21-18.81,0-7.71-1.78-14.24-5.33-19.6-3.55-5.36-8.54-9.44-14.96-12.24-6.42-2.79-14.09-4.19-23-4.19-12.54,0-22.29,3.29-29.23,9.86-6.95,6.57-10.42,15.3-10.42,26.17,0,7.25,1.66,13.56,4.99,18.92,3.32,5.36,7.97,9.56,13.94,12.58,5.97,3.02,12.88,4.53,20.74,4.53Zm43.28-92.46h29.46v112.63h-27.42c-.76-5.89-1.29-11.1-1.59-15.64-.3-4.53-.45-8.99-.45-13.37V102.07Z"/>
      <path class="cls-1" d="M697.19,102.07h29.46v112.63h-29.46V102.07Zm81.81-2.49c6.95,0,13.37,.91,19.26,2.72,5.89,1.81,11.03,4.61,15.41,8.38,4.38,3.78,7.78,8.58,10.2,14.39,2.41,5.82,3.62,12.73,3.62,20.73v68.89h-29.46v-63.68c0-9.52-2.3-16.5-6.91-20.96-4.61-4.46-12.12-6.69-22.55-6.69-7.86,0-14.96,1.51-21.3,4.53-6.34,3.02-11.48,6.84-15.41,11.44-3.93,4.61-6.2,9.4-6.8,14.39l-.23-11.56c.75-5.29,2.49-10.42,5.21-15.41s6.38-9.55,10.99-13.71c4.61-4.15,10.08-7.44,16.43-9.86,6.34-2.42,13.52-3.63,21.53-3.63Z"/>
      <path class="cls-1" d="M987.94,170.28c-.76,9.82-3.89,18.28-9.4,25.38-5.52,7.1-13.11,12.5-22.77,16.2-9.67,3.7-21.15,5.55-34.45,5.55s-26.33-2.23-37.28-6.69c-10.96-4.45-19.57-11.03-25.83-19.72-6.27-8.69-9.4-19.45-9.4-32.29s3.13-23.64,9.4-32.41c6.27-8.76,14.88-15.41,25.83-19.94,10.95-4.53,23.38-6.8,37.28-6.8s24.7,1.85,34.22,5.55c9.52,3.7,17.03,9.03,22.55,15.98,5.51,6.95,8.72,15.33,9.63,25.15h-26.97c-2.57-7.55-7.33-13.45-14.28-17.68-6.95-4.23-15.33-6.34-25.15-6.34-7.86,0-15,1.36-21.42,4.08-6.42,2.72-11.56,6.76-15.41,12.12-3.85,5.36-5.78,12.12-5.78,20.28s1.89,14.69,5.67,20.05c3.78,5.37,8.91,9.37,15.41,12.01,6.49,2.65,13.67,3.97,21.53,3.97,10.57,0,19.22-2.11,25.95-6.34,6.72-4.23,11.29-10.27,13.71-18.13h26.97Z"/>
      <path class="cls-1" d="M1011.73,214.7V56.75h29.46V214.7h-29.46Zm100.84,0v-61.87c0-6.19-1.06-11.33-3.17-15.41-2.12-4.08-5.48-7.17-10.08-9.29-4.61-2.11-10.76-3.17-18.47-3.17s-14.13,1.4-20.17,4.19c-6.04,2.8-10.96,6.42-14.73,10.88-3.78,4.46-5.89,9.18-6.35,14.16l-.23-12.46c.75-4.99,2.49-9.97,5.21-14.96,2.72-4.99,6.34-9.52,10.88-13.6s10.01-7.37,16.43-9.86c6.42-2.49,13.63-3.74,21.64-3.74,6.95,0,13.37,.87,19.26,2.61,5.89,1.74,11.03,4.42,15.41,8.04,4.38,3.63,7.78,8.12,10.2,13.48,2.42,5.36,3.63,11.67,3.63,18.92v72.06h-29.46Z"/>
      <path class="cls-1" d="M1223.62,217.19c-11.18,0-21.34-2.46-30.48-7.37-9.14-4.91-16.39-11.78-21.75-20.62-5.36-8.84-8.04-19.07-8.04-30.71s2.72-22.28,8.16-31.05c5.44-8.76,12.8-15.6,22.09-20.51,9.29-4.91,19.83-7.37,31.61-7.37,12.99,0,23.45,2.61,31.39,7.82,7.93,5.21,13.71,12.28,17.34,21.19,3.63,8.92,5.44,18.89,5.44,29.91,0,6.65-1.06,13.41-3.17,20.28-2.12,6.88-5.36,13.22-9.74,19.04-4.38,5.82-10.12,10.5-17.22,14.05-7.1,3.55-15.64,5.33-25.61,5.33Zm9.52-22.66c8.91,0,16.62-1.51,23.11-4.53,6.49-3.02,11.48-7.25,14.96-12.69,3.47-5.44,5.21-11.71,5.21-18.81,0-7.71-1.78-14.24-5.33-19.6-3.55-5.36-8.54-9.44-14.96-12.24-6.42-2.79-14.09-4.19-23-4.19-12.54,0-22.29,3.29-29.23,9.86-6.95,6.57-10.42,15.3-10.42,26.17,0,7.25,1.66,13.56,4.99,18.92,3.32,5.36,7.97,9.56,13.94,12.58,5.97,3.02,12.88,4.53,20.74,4.53Zm43.28-92.46h29.46v112.63h-27.42c-.76-5.89-1.29-11.1-1.59-15.64-.3-4.53-.45-8.99-.45-13.37V102.07Z"/>
    </g>
    <g>
      <path class="cls-2" d="M1246.64,56.31h23.68v3.85h-23.68v-3.85Zm9.55,3.37h4.62v19.1h-4.62v-19.1Z"/>
      <path class="cls-2" d="M1290.45,76.48h-2.19l12.92-20.17h4.62v22.46h-4.62v-16.32l1.11,.31-10.31,16.01h-5.17l-10.31-15.94,1.11-.31v16.25h-4.62v-22.46h4.62l12.85,20.17Z"/>
    </g>
    <g>
      <circle class="cls-2" cx="150" cy="150" r="150"/>
      <g>
        <path class="cls-1" d="M166.12,135.95l6.31-2.94,15.41-7.19,9.74-4.54c3.46-1.61,5.67-5.08,5.67-8.89V33.62l-15.41,7.19-15.41,7.18-9.74,4.54c-3.46,1.61-5.67,5.08-5.67,8.89v72.02c0,3.81-2.21,7.28-5.67,8.89l-9.74,4.54-9.34,4.36-6.06,2.83V86.06l-15.41,7.19-15.41,7.18-9.74,4.54c-3.46,1.61-5.67,5.08-5.67,8.89V243.63l30.81-14.37,9.75-4.55c3.46-1.61,5.67-5.08,5.67-8.89v-61.7c1.13,0,2.26,.05,3.38,.15,28.97,2.54,51.92,37.55,51.92,80.37,0,11.27-1.59,22-4.47,31.74l10.8-5.04,15.41-7.18,12.22-5.7c2.93-9.81,4.55-20.65,4.55-32.03,0-43.79-24.01-79.41-53.91-80.49Z"/>
        <circle class="cls-1" cx="103.09" cy="256.57" r="9.81" transform="translate(-39.77 19.83) rotate(-9.22)"/>
      </g>
    </g>
  </g>
</svg>