<?xml version="1.0" encoding="UTF-8"?>
<svg id="Capa_2" data-name="Capa 2" xmlns="http://www.w3.org/2000/svg" viewBox="0 0 996.6 354.07">
  <defs>
    <style>
      .cls-1 {
        fill: #1a1414;
      }
    </style>
  </defs>
  <g id="Logo">
    <path class="cls-1" d="M0,242.47c.36-3.41,.7-6.82,1.09-10.23,1.93-17.01,6.4-33.39,12.36-49.39,10.02-26.89,23.93-51.71,40.2-75.27,17.99-26.06,38.2-50.34,59.19-74,9.63-10.85,19.43-21.54,29.15-32.31,.35-.38,.61-.84,.91-1.27,.17,.13,.34,.25,.52,.38-.35,.63-.68,1.28-1.05,1.9-12.23,20.58-22.13,42.21-28.88,65.2-4.84,16.49-7.78,33.28-7.23,50.54,.71,22.1,7.37,41.94,22.45,58.59,12.82,14.16,28.82,22.55,47.36,26.43,18.8,3.94,37.72,3.73,56.72,1.74,20.06-2.1,39.5-7.03,58.91-12.21,44.69-11.93,89.41-23.71,134.12-35.56,34.47-9.14,68.94-18.3,103.41-27.45,45.52-12.09,91.04-24.16,136.56-36.26,44.2-11.74,88.39-23.51,132.59-35.25,51.42-13.66,102.84-27.31,154.26-40.95,14.19-3.77,28.39-7.5,42.58-11.25,.43-.11,.86-.18,1.4,.06-1.62,.7-3.24,1.42-4.86,2.11-86.19,36.85-172.37,73.71-258.56,110.56-89.29,38.17-178.59,76.34-267.89,114.5-64.45,27.54-128.92,55.04-193.38,82.55-26.56,11.34-53.61,21.27-81.62,28.46-18.35,4.71-36.9,8.29-55.84,9.67-.44,.03-.87,.21-1.3,.32h-30.07c-.36-.11-.72-.27-1.1-.32-5.59-.8-11.24-1.32-16.77-2.42-21.38-4.23-40.4-13.05-56.01-28.7-15.7-15.74-25.28-34.39-28.11-56.46-.4-3.08-.73-6.18-1.1-9.26,0-4.81,0-9.62,0-14.44Z"/>
  </g>
</svg>