<?xml version="1.0" encoding="UTF-8"?>
<svg id="Capa_2" data-name="Capa 2" xmlns="http://www.w3.org/2000/svg" viewBox="0 0 2663.43 237.21">
  <defs>
    <style>
      .cls-1 {
        fill: #fff4f4;
      }

      .cls-2 {
        fill: #ff1d25;
      }
    </style>
  </defs>
  <g id="Logo">
    <g>
      <path class="cls-1" d="M.17,178.16H40.21c2.45,7.56,7.51,13.74,15.18,18.52,7.67,4.79,17.74,7.17,30.2,7.17,8.45,0,15.01-.78,19.69-2.34,4.67-1.55,7.89-3.84,9.68-6.84,1.78-3,2.67-6.39,2.67-10.18,0-4.67-1.45-8.28-4.34-10.84-2.89-2.55-7.34-4.61-13.35-6.17-6.01-1.55-13.68-3-23.02-4.34-9.34-1.55-18.35-3.45-27.03-5.67-8.67-2.22-16.35-5.17-23.02-8.84s-11.96-8.34-15.85-14.01c-3.89-5.67-5.84-12.62-5.84-20.85s1.94-15.12,5.84-21.35c3.89-6.22,9.34-11.45,16.35-15.68,7.01-4.22,15.23-7.45,24.69-9.68,9.45-2.22,19.63-3.34,30.53-3.34,16.46,0,30.14,2.39,41.04,7.17,10.9,4.79,19.07,11.46,24.52,20.02,5.45,8.57,8.17,18.41,8.17,29.53h-38.37c-1.78-8.23-5.34-14.18-10.68-17.85-5.34-3.67-13.57-5.51-24.69-5.51s-19.13,1.67-24.69,5c-5.56,3.34-8.34,7.9-8.34,13.68,0,4.67,1.72,8.29,5.17,10.84,3.45,2.56,8.56,4.62,15.35,6.17,6.78,1.56,15.29,3.23,25.53,5,8.67,1.78,16.96,3.79,24.86,6.01,7.89,2.23,14.96,5.06,21.19,8.51,6.22,3.45,11.18,8.01,14.85,13.68,3.67,5.67,5.51,12.85,5.51,21.52,0,10.68-3.06,19.69-9.18,27.03-6.12,7.34-14.85,12.96-26.19,16.85-11.34,3.89-24.92,5.84-40.71,5.84-14.01,0-26.08-1.5-36.2-4.5-10.12-3-18.52-6.89-25.19-11.68-6.67-4.78-11.84-9.9-15.51-15.35-3.67-5.45-6.17-10.62-7.51-15.51-1.33-4.89-1.78-8.89-1.33-12.01Z"/>
      <path class="cls-1" d="M292.79,237.21c-20.91,0-39.32-3.34-55.22-10.01-15.91-6.67-28.31-16.4-37.2-29.2-8.9-12.79-13.35-28.53-13.35-47.21s4.45-34.53,13.35-47.55c8.89-13.01,21.3-22.86,37.2-29.53,15.9-6.67,34.31-10.01,55.22-10.01s39.21,3.34,54.89,10.01c15.68,6.67,27.97,16.52,36.87,29.53,8.89,13.01,13.35,28.86,13.35,47.55s-4.45,34.42-13.35,47.21c-8.9,12.79-21.19,22.52-36.87,29.2-15.68,6.67-33.98,10.01-54.89,10.01Zm0-33.37c11.56,0,21.96-2.05,31.2-6.17,9.23-4.11,16.52-10.12,21.86-18.02,5.34-7.89,8.01-17.52,8.01-28.86s-2.67-21.07-8.01-29.2c-5.34-8.12-12.57-14.29-21.69-18.52-9.12-4.22-19.58-6.34-31.36-6.34s-22.02,2.12-31.36,6.34c-9.34,4.23-16.74,10.34-22.19,18.35-5.45,8.01-8.17,17.8-8.17,29.36s2.67,20.97,8.01,28.86c5.34,7.9,12.68,13.9,22.02,18.02,9.34,4.12,19.9,6.17,31.7,6.17Z"/>
      <path class="cls-1" d="M429.92,67.38h43.38V233.21h-43.38V67.38Zm120.45-3.67c10.23,0,19.69,1.33,28.36,4,8.67,2.67,16.23,6.79,22.69,12.35,6.45,5.56,11.45,12.63,15.01,21.19,3.56,8.57,5.34,18.74,5.34,30.53v101.43h-43.38v-93.76c0-14.01-3.39-24.3-10.18-30.86-6.79-6.56-17.85-9.84-33.2-9.84-11.57,0-22.02,2.23-31.36,6.67-9.34,4.45-16.91,10.07-22.69,16.85-5.79,6.79-9.12,13.85-10.01,21.19l-.33-17.02c1.11-7.78,3.67-15.35,7.67-22.69,4-7.34,9.39-14.07,16.18-20.19,6.78-6.12,14.85-10.95,24.19-14.51,9.34-3.56,19.91-5.34,31.7-5.34Zm144.47,0c10.23,0,19.69,1.33,28.36,4,8.68,2.67,16.23,6.79,22.69,12.35,6.45,5.56,11.51,12.63,15.18,21.19,3.67,8.57,5.5,18.74,5.5,30.53v101.43h-43.38v-93.76c0-14.01-3.45-24.3-10.34-30.86-6.9-6.56-18.02-9.84-33.37-9.84-11.57,0-22.02,2.23-31.36,6.67-9.34,4.45-16.91,10.07-22.69,16.85-5.79,6.79-9.01,13.85-9.68,21.19l-.67-18.02c1.11-7.34,3.78-14.68,8.01-22.02,4.22-7.34,9.79-14.01,16.68-20.02,6.89-6.01,14.96-10.79,24.19-14.35,9.23-3.56,19.52-5.34,30.86-5.34Z"/>
      <path class="cls-1" d="M903.72,237.21c-20.91,0-39.32-3.34-55.22-10.01-15.91-6.67-28.31-16.4-37.2-29.2-8.9-12.79-13.35-28.53-13.35-47.21s4.45-34.53,13.35-47.55c8.89-13.01,21.3-22.86,37.2-29.53,15.9-6.67,34.31-10.01,55.22-10.01s39.21,3.34,54.89,10.01c15.68,6.67,27.97,16.52,36.87,29.53,8.89,13.01,13.35,28.86,13.35,47.55s-4.45,34.42-13.35,47.21c-8.9,12.79-21.19,22.52-36.87,29.2-15.68,6.67-33.98,10.01-54.89,10.01Zm0-33.37c11.56,0,21.96-2.05,31.2-6.17,9.23-4.11,16.52-10.12,21.85-18.02,5.34-7.89,8.01-17.52,8.01-28.86s-2.67-21.07-8.01-29.2c-5.34-8.12-12.57-14.29-21.69-18.52-9.12-4.22-19.58-6.34-31.36-6.34s-22.02,2.12-31.36,6.34c-9.34,4.23-16.74,10.34-22.19,18.35-5.45,8.01-8.17,17.8-8.17,29.36s2.67,20.97,8.01,28.86c5.34,7.9,12.68,13.9,22.02,18.02,9.34,4.12,19.9,6.17,31.7,6.17Z"/>
      <path class="cls-1" d="M1034.18,178.16h40.04c2.45,7.56,7.51,13.74,15.18,18.52,7.67,4.79,17.74,7.17,30.2,7.17,8.45,0,15.01-.78,19.69-2.34,4.67-1.55,7.89-3.84,9.68-6.84,1.78-3,2.67-6.39,2.67-10.18,0-4.67-1.45-8.28-4.34-10.84-2.89-2.55-7.34-4.61-13.35-6.17-6.01-1.55-13.68-3-23.02-4.34-9.34-1.55-18.35-3.45-27.03-5.67-8.67-2.22-16.35-5.17-23.02-8.84-6.67-3.67-11.96-8.34-15.85-14.01-3.89-5.67-5.84-12.62-5.84-20.85s1.94-15.12,5.84-21.35c3.89-6.22,9.34-11.45,16.35-15.68,7.01-4.22,15.23-7.45,24.69-9.68,9.45-2.22,19.63-3.34,30.53-3.34,16.46,0,30.14,2.39,41.04,7.17,10.9,4.79,19.07,11.46,24.52,20.02,5.45,8.57,8.17,18.41,8.17,29.53h-38.37c-1.78-8.23-5.34-14.18-10.68-17.85-5.34-3.67-13.57-5.51-24.69-5.51s-19.13,1.67-24.69,5c-5.56,3.34-8.34,7.9-8.34,13.68,0,4.67,1.72,8.29,5.17,10.84,3.45,2.56,8.56,4.62,15.35,6.17,6.78,1.56,15.29,3.23,25.53,5,8.67,1.78,16.96,3.79,24.86,6.01,7.89,2.23,14.96,5.06,21.19,8.51,6.23,3.45,11.18,8.01,14.85,13.68,3.67,5.67,5.5,12.85,5.5,21.52,0,10.68-3.06,19.69-9.18,27.03-6.12,7.34-14.85,12.96-26.19,16.85-11.34,3.89-24.92,5.84-40.71,5.84-14.01,0-26.08-1.5-36.2-4.5-10.12-3-18.52-6.89-25.19-11.68-6.67-4.78-11.85-9.9-15.52-15.35-3.67-5.45-6.17-10.62-7.51-15.51-1.33-4.89-1.78-8.89-1.33-12.01Z"/>
      <path class="cls-1" d="M1312.45,.65h43.38V233.21h-43.38V.65Zm183.18,66.73l-98.76,87.08,1-26.69,105.44,105.44h-55.05l-91.42-93.09,79.75-72.74h59.06Z"/>
      <path class="cls-1" d="M1606.73,236.88c-16.46,0-31.42-3.62-44.88-10.84-13.46-7.23-24.14-17.35-32.03-30.36-7.9-13.01-11.84-28.08-11.84-45.21s4-32.81,12.01-45.71c8.01-12.9,18.85-22.97,32.53-30.2,13.68-7.23,29.2-10.84,46.55-10.84,19.13,0,34.53,3.84,46.21,11.51,11.68,7.67,20.19,18.08,25.52,31.2,5.34,13.13,8.01,27.81,8.01,44.04,0,9.79-1.56,19.74-4.67,29.86-3.12,10.12-7.9,19.47-14.35,28.03-6.45,8.57-14.91,15.46-25.36,20.69-10.46,5.22-23.02,7.84-37.7,7.84Zm14.01-33.37c13.12,0,24.47-2.22,34.03-6.67,9.56-4.45,16.9-10.68,22.02-18.68,5.12-8.01,7.67-17.24,7.67-27.69,0-11.34-2.62-20.96-7.84-28.86-5.23-7.89-12.57-13.9-22.02-18.02-9.46-4.11-20.74-6.17-33.87-6.17-18.47,0-32.81,4.84-43.04,14.51-10.23,9.68-15.35,22.52-15.35,38.54,0,10.68,2.45,19.97,7.34,27.86,4.89,7.9,11.73,14.07,20.52,18.52,8.79,4.45,18.96,6.67,30.53,6.67Zm63.73-136.13h43.38V233.21h-40.37c-1.12-8.67-1.89-16.35-2.34-23.02-.45-6.67-.67-13.23-.67-19.69V67.38Z"/>
      <path class="cls-1" d="M1767.22,67.38h43.38V233.21h-43.38V67.38Zm120.45-3.67c10.23,0,19.69,1.33,28.36,4,8.68,2.67,16.24,6.79,22.69,12.35,6.45,5.56,11.45,12.63,15.01,21.19,3.56,8.57,5.34,18.74,5.34,30.53v101.43h-43.38v-93.76c0-14.01-3.39-24.3-10.18-30.86-6.79-6.56-17.85-9.84-33.2-9.84-11.57,0-22.02,2.23-31.36,6.67-9.34,4.45-16.91,10.07-22.69,16.85-5.79,6.79-9.12,13.85-10.01,21.19l-.33-17.02c1.11-7.78,3.67-15.35,7.67-22.69,4-7.34,9.39-14.07,16.18-20.19,6.78-6.12,14.85-10.95,24.19-14.51,9.34-3.56,19.91-5.34,31.7-5.34Z"/>
      <path class="cls-1" d="M2195.31,167.81c-1.12,14.46-5.73,26.92-13.85,37.37-8.12,10.46-19.3,18.41-33.53,23.86-14.24,5.45-31.15,8.17-50.72,8.17s-38.76-3.28-54.89-9.84c-16.13-6.56-28.81-16.24-38.04-29.03-9.23-12.79-13.85-28.64-13.85-47.55s4.61-34.81,13.85-47.71c9.23-12.9,21.91-22.69,38.04-29.36,16.12-6.67,34.42-10.01,54.89-10.01s36.37,2.73,50.38,8.17c14.01,5.45,25.08,13.29,33.2,23.52,8.12,10.23,12.85,22.58,14.18,37.04h-39.71c-3.78-11.12-10.79-19.8-21.02-26.03-10.23-6.22-22.58-9.34-37.04-9.34-11.57,0-22.08,2-31.53,6.01-9.46,4-17.02,9.96-22.69,17.85-5.67,7.9-8.51,17.85-8.51,29.86s2.78,21.64,8.34,29.53c5.56,7.9,13.12,13.79,22.69,17.68,9.56,3.89,20.13,5.84,31.7,5.84,15.57,0,28.3-3.11,38.2-9.34,9.9-6.22,16.63-15.12,20.19-26.69h39.71Z"/>
      <path class="cls-1" d="M2230.34,233.21V.65h43.38V233.21h-43.38Zm148.48,0v-91.09c0-9.12-1.56-16.68-4.67-22.69-3.12-6.01-8.06-10.56-14.85-13.68-6.79-3.11-15.85-4.67-27.19-4.67s-20.8,2.06-29.7,6.17c-8.9,4.12-16.13,9.46-21.69,16.02-5.56,6.56-8.67,13.51-9.34,20.85l-.33-18.35c1.11-7.34,3.67-14.68,7.67-22.02,4-7.34,9.34-14.01,16.02-20.02,6.67-6.01,14.73-10.84,24.19-14.51,9.45-3.67,20.07-5.51,31.87-5.51,10.23,0,19.69,1.28,28.36,3.84,8.68,2.56,16.24,6.51,22.69,11.85,6.45,5.34,11.45,11.96,15.01,19.85,3.56,7.9,5.34,17.18,5.34,27.86v106.1h-43.38Z"/>
      <path class="cls-1" d="M2542.31,236.88c-16.46,0-31.42-3.62-44.88-10.84-13.46-7.23-24.14-17.35-32.03-30.36-7.9-13.01-11.84-28.08-11.84-45.21s4-32.81,12.01-45.71c8.01-12.9,18.85-22.97,32.53-30.2,13.68-7.23,29.2-10.84,46.55-10.84,19.13,0,34.53,3.84,46.21,11.51,11.68,7.67,20.19,18.08,25.52,31.2,5.34,13.13,8.01,27.81,8.01,44.04,0,9.79-1.56,19.74-4.67,29.86-3.12,10.12-7.9,19.47-14.35,28.03-6.45,8.57-14.91,15.46-25.36,20.69-10.46,5.22-23.02,7.84-37.7,7.84Zm14.01-33.37c13.12,0,24.47-2.22,34.03-6.67,9.56-4.45,16.9-10.68,22.02-18.68,5.12-8.01,7.67-17.24,7.67-27.69,0-11.34-2.62-20.96-7.84-28.86-5.23-7.89-12.57-13.9-22.02-18.02-9.46-4.11-20.74-6.17-33.87-6.17-18.47,0-32.81,4.84-43.04,14.51-10.23,9.68-15.35,22.52-15.35,38.54,0,10.68,2.45,19.97,7.34,27.86,4.89,7.9,11.73,14.07,20.52,18.52,8.79,4.45,18.96,6.67,30.53,6.67Zm63.73-136.13h43.38V233.21h-40.37c-1.12-8.67-1.89-16.35-2.34-23.02-.45-6.67-.67-13.23-.67-19.69V67.38Z"/>
    </g>
    <g>
      <path class="cls-2" d="M2574.9,0h34.86V5.67h-34.86V0Zm14.06,4.96h6.8v28.12h-6.8V4.96Z"/>
      <path class="cls-2" d="M2639.41,29.7h-3.22l19.02-29.7h6.8V33.08h-6.8V9.05l1.64,.46-15.18,23.57h-7.62l-15.18-23.46,1.64-.46v23.92h-6.8V0h6.8l18.91,29.7Z"/>
    </g>
  </g>
</svg>