<?xml version="1.0" encoding="UTF-8"?>
<svg id="Capa_2" data-name="Capa 2" xmlns="http://www.w3.org/2000/svg" viewBox="0 0 1000 648.46">
  <defs>
    <style>
      .cls-1 {
        fill: #1a1414;
      }
    </style>
  </defs>
  <g id="Logo">
    <g id="g3053">
      <g id="g3059">
        <path id="path3061" class="cls-1" d="M486.61,59.96L111.19,216.91c-5.3,2.23-5.3,5.81,0,8.03l375.43,157.04c7.36,3.03,19.39,3.03,26.74,0l375.44-157.04c5.32-2.22,5.32-5.8,0-8.03L513.35,59.96c-7.35-3.08-19.38-3.08-26.74,0m498.94,138.57c8.58,3.81,14.45,12.39,14.45,22.41s-5.99,18.59-14.6,22.4l-467.34,195.45c-9.92,4.13-26.18,4.13-36.11,0L14.57,243.35c-8.63-3.81-14.57-12.38-14.57-22.4s5.94-18.67,14.57-22.47L481.95,3.11c9.93-4.15,26.19-4.15,36.11,0l467.49,195.42h0Zm-253.37,11.68c4.11,1.83,6.94,5.91,6.94,10.74s-2.86,8.85-6.94,10.68l-223.49,93.47c-4.79,2.03-12.56,2.03-17.35,0l-223.5-93.47c-4.07-1.83-7-5.9-7-10.68s2.93-8.9,7-10.75l223.5-93.46c4.78-1.97,12.56-1.97,17.35,0l223.49,93.47h0Zm-236.11,58.11c2.13,.85,5.71,.85,7.83,0l110.48-46.22c1.54-.65,1.54-1.72,0-2.38l-110.48-46.14c-2.12-.87-5.7-.87-7.83,0l-110.42,46.14c-1.56,.67-1.56,1.73,0,2.38,0,0,110.42,46.22,110.42,46.22Z"/>
      </g>
      <g id="g3063">
        <path id="path3065" class="cls-1" d="M689.24,540.25h-.5v-23.8h-40.6v129.08h44.6v-54.53c0-25.29,11.64-40.36,32.43-40.36,5.18,0,10.05,0,14.99,1.41v-37.49c-3.9-.59-8.41-1.12-12.8-1.12-19.24,0-30.41,10.43-38.12,26.81"/>
      </g>
      <g id="g3067">
        <path id="path3069" class="cls-1" d="M582.46,513.37c-17.81,0-32.92,5.2-44.3,19.54h-.5v-62.2h-44.84v174.66h41.07v-23.02h.5c5.71,14.42,23.82,26.02,44.4,26.02,38.36,0,58.93-31.71,58.93-69.85,0-31.26-19.6-65.16-55.27-65.16m-17.65,102.69c-15.54,0-28.49-14.75-28.49-34.46s11.37-35.23,28.49-35.23c18.15,0,28.29,15.51,28.29,33.43,0,21.51-10.67,36.26-28.29,36.26"/>
      </g>
      <g id="g3071">
        <path id="path3073" class="cls-1" d="M431.58,513.45c-18.29,0-35.41,7.43-45.81,24.81-6.92-16.87-22.05-24.81-40.4-24.81-20.28,0-38.12,8.15-47.06,26.81h-.44v-23.8h-40.63v129.08h44.6v-54.53c0-27.74,9.37-40.36,25.24-40.36,12.61,0,17.85,10.92,17.85,25.49v69.4h44.6v-54.53c0-27.74,9.43-40.36,25.23-40.36,12.66,0,17.85,10.92,17.85,25.49v69.4h44.61v-76.08c0-34.94-8.46-56-45.64-56"/>
      </g>
      <g id="g3075">
        <path id="path3077" class="cls-1" d="M817.83,513.45c-42.64,0-75.09,24.81-75.09,67.65s32.45,67.36,75.09,67.36,75.01-24.71,75.01-67.36-32.45-67.65-75.01-67.65m-31.68,68.01c0-22.49,12.63-38.83,31.22-38.83,19.82,0,31,16.92,31,36.75,0,23.91-11.76,39.99-31,39.99-16.88,0-31.22-16.11-31.22-37.92"/>
      </g>
      <g id="g3079">
        <path id="path3081" class="cls-1" d="M107.1,516.45v73.04c0,41.37,29.11,58.96,66.8,58.96s66.76-17.59,66.76-58.96v-73.04h-44.54v69.44c0,15.9-3.93,30.17-22.23,30.17s-22.31-14.27-22.31-30.17v-69.44s-44.48,0-44.48,0Z"/>
      </g>
    </g>
  </g>
</svg>