<?xml version="1.0" encoding="UTF-8"?>
<svg id="Capa_2" data-name="Capa 2" xmlns="http://www.w3.org/2000/svg" viewBox="0 0 1000 583.49">
  <defs>
    <style>
      .cls-1 {
        fill: #1a1414;
      }
    </style>
  </defs>
  <g id="Logo">
    <g>
      <path class="cls-1" d="M673.09,0c4.51,.68,8.72,1.21,12.89,1.95,56.03,9.86,109.06,28.77,160.15,53.41,7.65,3.69,14.84,8.3,22.3,12.38,2.04,1.12,2.47,2.55,2.28,4.76-1.53,17.37-6.89,33.51-15.48,48.62-10.62,18.69-24.83,34.33-41.11,48.19-20.93,17.82-44.27,31.86-69.03,43.65-3.54,1.69-7.11,3.32-10.67,4.98-.11,.05-.18,.18-.24,.25,6.69,3.22,13.47,6.34,20.11,9.71,26.35,13.4,50.91,29.41,72.06,50.26,16.12,15.89,29.37,33.77,37.45,55.14,3.87,10.23,6.25,20.78,7.01,31.7,.11,1.52-.36,2.36-1.61,3.18-12.96,8.39-26.79,15.09-40.87,21.32-36.14,15.99-73.12,29.63-111.69,38.54-13.7,3.16-27.6,5.41-41.42,8.06-.56,.11-1.15,.07-1.97,.11,0-.94,0-1.77,0-2.6,.04-42.39-.04-84.78,.18-127.17,.1-18.66-5.46-35.4-15.7-50.76-1.89-2.83-4.08-5.45-6.03-8.24-.83-1.18-1.63-1.48-3.09-1.13-18.33,4.46-36.84,8.05-55.53,10.49-13.95,1.82-27.97,3.24-41.99,4.49-20.71,1.84-41.48,2.24-62.26,1.89-21.37-.36-42.67-1.74-63.91-4.16-24.35-2.78-48.47-6.85-72.3-12.6-1.64-.39-2.56-.04-3.6,1.27-10.59,13.3-18.12,28-20.63,44.96-.63,4.26-.89,8.61-.89,12.92,.02,42.72,.13,85.44,.21,128.15,0,.77,0,1.55,0,2.64-3.55-.52-6.89-.96-10.22-1.51-44.06-7.32-86.29-20.82-127.46-37.87-17.78-7.36-35.35-15.19-52.01-24.9-2.2-1.29-4.29-2.78-6.5-4.05-1.26-.73-1.56-1.6-1.46-3.03,1.45-19.97,8.11-38.16,18.66-55.02,11.31-18.08,25.9-33.22,42.39-46.59,22.22-18.02,46.84-32.06,72.85-43.78,.89-.4,1.78-.81,3.03-1.39-1.19-.55-2.08-.97-2.99-1.38-26.8-12.07-52.14-26.55-74.84-45.36-18.78-15.56-34.97-33.33-46.28-55.18-7.18-13.88-11.58-28.57-12.88-44.18-.16-1.88,.23-3.06,1.95-4.16,13.27-8.5,27.42-15.31,41.8-21.64,34.66-15.26,70.1-28.4,107-37.15,14.69-3.49,29.63-5.94,44.46-8.84,.69-.14,1.41-.11,2.39-.18,0,1,0,1.83,0,2.65-.08,42.78-.16,85.57-.25,128.35-.05,22.32,8.44,41.38,22.34,58.35,.41,.5,1.61,.67,2.34,.52,8.07-1.68,16.06-3.8,24.19-5.13,17.05-2.8,34.12-5.54,51.25-7.7,23.68-2.99,47.51-4.02,71.38-4.06,19.28-.03,38.51,.73,57.72,2.33,31.04,2.6,61.74,7.31,92.04,14.59,1.22,.29,1.98,.1,2.83-.95,10.66-13.24,18.25-27.92,20.88-44.85,.67-4.32,.96-8.73,.95-13.11-.01-42.72-.13-85.44-.21-128.15,0-.84,0-1.69,0-2.99ZM382.59,218.04c1.32,.82,2.02,1.3,2.76,1.7,4.01,2.2,7.97,4.53,12.07,6.55,26.7,13.2,55.18,19.42,84.73,21.16,18.74,1.1,37.45,.65,56.08-1.89,22.59-3.08,44.33-9.01,64.82-19.14,5.01-2.48,9.86-5.29,15.19-8.17-3.19-1.84-5.87-3.46-8.61-4.95-22.89-12.47-47.48-19.52-73.22-22.73-23.63-2.95-47.3-2.96-70.95-.1-22.63,2.73-44.45,8.44-65.1,18.23-5.89,2.79-11.56,6.06-17.78,9.34Z"/>
      <path class="cls-1" d="M690.03,560.7c1.6-2.78,3.15-5.27,4.49-7.86,3.62-7.04,7.14-14.12,10.71-21.19,.62-1.23,1.24-2.45,1.9-3.65,2.33-4.26,5.61-6.55,10.8-6.27,6.07,.33,12.18,.06,18.28,.09,3.05,.01,3.9,.83,3.9,3.83,.02,18.01,.02,36.03,.01,54.04,0,2.38-.77,3.33-3.1,3.4-3.99,.12-7.99,.13-11.99,0-2.51-.08-3.31-1.08-3.32-3.64-.01-11.99,0-23.97,0-35.96,0-.7,0-1.41,0-2.7-.64,1.04-1.02,1.6-1.34,2.2-6.99,12.8-14.01,25.6-20.93,38.44-.74,1.37-1.54,1.8-3.04,1.76-4.32-.1-8.65-.1-12.97,0-1.46,.03-2.2-.47-2.87-1.73-6.9-12.85-13.87-25.67-20.82-38.5-.31-.57-.63-1.12-1.19-2.13-.05,1.12-.1,1.79-.1,2.46,0,11.79,0,23.58,0,35.37,0,3.65-.83,4.47-4.53,4.49-3.34,.02-6.68,.05-10.02-.02-3.1-.07-3.96-.97-3.96-4.04,0-17.69,0-35.37,0-53.06,0-3.36,.84-4.21,4.16-4.22,6.62-.03,13.23,.02,19.85-.04,2.91-.03,5.32,1.02,7,3.3,1.51,2.04,2.83,4.24,4,6.49,4.65,9.01,9.21,18.06,13.81,27.09,.32,.62,.74,1.19,1.29,2.04Z"/>
      <path class="cls-1" d="M168.81,583.06c-8.84,0-17.48,.08-26.12-.04-3.59-.05-6.17-2.2-8.35-4.91-10.05-12.51-20.11-25.01-30.17-37.51-.16-.2-.34-.38-.92-1.01v2.4c0,12.32,0,24.63,0,36.95,0,3.37-.77,4.18-4.14,4.21-3.47,.04-6.95,.05-10.42,0-3.12-.05-3.92-.91-3.92-4.04,0-17.36,0-34.72,0-52.08,0-.33,0-.66,0-.98,.05-3.42,.94-4.34,4.31-4.35,3.54-.02,7.08,0,10.61,0,2.88,0,5.77,.13,8.65-.03,3.09-.17,5.81,.73,7.87,2.88,3.65,3.83,7.22,7.76,10.52,11.89,7.25,9.04,14.31,18.23,21.45,27.36,.22,.29,.49,.53,1.06,1.14,0-1.14,0-1.84,0-2.53,0-11.99,0-23.98,0-35.96,0-3.91,.83-4.73,4.72-4.74,3.73-.01,7.47-.04,11.2,.01,2.76,.04,3.73,.98,3.73,3.66,.02,18.87,.02,37.73,.02,56.6,0,.32-.07,.63-.12,1.1Z"/>
      <path class="cls-1" d="M788.73,583.26c-7.4,0-14.81-.21-22.2,.05-12.6,.43-16.85-6.54-18.17-14.91-1.67-10.53-1.79-21.16-.17-31.69,1.45-9.43,7.93-14.9,17.98-15.1,15.19-.29,30.39-.29,45.58,0,10.42,.19,16.83,6.08,17.98,16.41,1.1,9.9,1.04,19.87-.29,29.77-.23,1.74-.71,3.47-1.31,5.12-2.42,6.7-7.31,10.23-14.44,10.31-8.32,.09-16.64,.02-24.96,.02v.02Zm.39-15.77c3.73,0,7.47,0,11.2,0,.13,0,.26,0,.39,0,5.03-.05,8.04-2.25,8.62-7.27,.57-4.91,.61-9.92,.44-14.88-.16-4.89-3.04-7.73-7.92-8.11-3.97-.31-7.98-.28-11.97-.27-4.52,0-9.04-.02-13.54,.3-4.33,.3-7.14,2.72-7.42,6.99-.36,5.39-.35,10.87,.23,16.23,.53,4.96,3.53,7,8.58,7.01,3.8,0,7.6,0,11.4,0Z"/>
      <path class="cls-1" d="M625.27,558.98c6.62,1.83,7.81,6.96,8.26,12.42,.25,2.99,.14,6.02,.06,9.03-.06,2.23-.65,2.72-2.91,2.72-4.72,.02-9.43,.01-14.15,0-2.64,0-3.52-.79-3.68-3.47-.1-1.83,.01-3.67-.04-5.5-.13-4.68-1.84-6.32-6.5-6.32-6.94,0-13.89-.06-20.83,.05-1.62,.02-2.44-.53-3.14-1.92-1.67-3.37-3.5-6.66-5.66-9.93v1.84c0,7.2,0,14.41,0,21.61,0,2.8-.78,3.61-3.61,3.63-4.65,.04-9.3,.02-13.95,0-2.57,0-3.14-.55-3.15-3.1-.02-6.94,0-13.88,0-20.82,0-10.35,0-20.69,0-31.04,0-4.81,1.57-6.38,6.34-6.38,18.47,0,36.94,.01,55.41,.03,1.24,0,2.49,.05,3.72,.21,6.31,.84,9.91,4.65,11.32,10.65,1.29,5.49,1.21,11.05,.38,16.59-.49,3.27-2.14,5.86-4.97,7.66-.92,.58-1.79,1.24-2.9,2.03Zm-48.94-7.64c.43,.1,.68,.2,.93,.2,9.56-.05,19.12-.07,28.68-.19,1.41-.02,2.86-.38,4.22-.8,2.37-.72,3.26-2.01,3.38-4.47,.32-6.77-.81-8.02-7.55-8.06-8.51-.04-17.03-.03-25.54-.01-.84,0-1.78-.06-2.5,.28-.66,.31-1.52,1.1-1.55,1.7-.14,3.77-.07,7.56-.07,11.35Z"/>
      <path class="cls-1" d="M991.43,559c6.13,1.57,7.71,6.14,8.2,11.25,.32,3.44,.12,6.93,.14,10.4,.01,1.81-.9,2.54-2.7,2.52-4.91-.06-9.83-.05-14.74,0-1.92,.02-2.97-.87-3.13-2.74-.12-1.36-.13-2.74-.19-4.11-.05-1.24,.01-2.5-.15-3.72-.42-3.25-2.12-4.72-5.39-4.73-7.4-.01-14.81-.03-22.21,.03-1.2,0-1.89-.34-2.44-1.43-1.76-3.48-3.63-6.9-5.86-10.32v2.02c0,7.07,0,14.15,0,21.22,0,2.91-.8,3.74-3.74,3.76-4.72,.03-9.43,.03-14.15,0-2.26-.01-2.85-.64-2.85-2.97,0-17.55-.01-35.11,0-52.66,0-4.01,1.72-5.71,5.78-5.71,18.67,0,37.34,0,56.01,.03,1.43,0,2.88,.14,4.3,.35,5.18,.78,8.58,3.79,10.12,8.7,2.02,6.45,1.93,13.03,.61,19.61-.51,2.55-1.98,4.52-4.1,6.02-1.06,.75-2.12,1.49-3.52,2.47Zm-48.81-7.57c.66,.05,1.17,.12,1.68,.12,7.79,0,15.58,.05,23.37-.02,2.41-.02,4.85-.19,7.22-.59,3.76-.62,4.83-2.06,4.82-5.87-.01-5.95-1-7.01-6.93-7.04-8.77-.05-17.54-.04-26.31-.02-.84,0-1.75,.03-2.5,.34-.56,.23-1.28,.94-1.29,1.45-.11,3.84-.06,7.68-.06,11.63Z"/>
      <path class="cls-1" d="M360.23,556.17c0,.68,0,1.35,0,2.03,0,7.01,0,14.02,0,21.02,0,3.09-.76,3.9-3.77,3.93-4.72,.03-9.43,.03-14.15,0-2.19-.01-2.83-.64-2.83-2.79,0-17.68-.02-35.37,0-53.05,0-3.67,1.77-5.48,5.4-5.49,19-.02,38-.05,56.99,.04,8.88,.05,13.6,4.15,14.7,13.06,.53,4.31,.34,8.74,.17,13.11-.16,4.23-2.34,7.4-6.01,9.54-.56,.33-1.06,.75-1.58,1.14-.04,.03-.05,.12-.14,.34,5.8,1.48,7.41,6.07,7.88,11.23,.32,3.44,.12,6.93,.13,10.4,0,1.68-.8,2.49-2.54,2.48-4.98-.04-9.96-.03-14.94,0-1.8,.01-2.89-.77-3.06-2.58-.14-1.43-.15-2.87-.21-4.3-.05-1.24,.01-2.5-.15-3.72-.43-3.24-2.13-4.69-5.42-4.69-7.34-.01-14.67-.04-22.01,.04-1.39,.01-2.11-.45-2.71-1.64-1.73-3.42-3.55-6.78-5.34-10.16-.14,.02-.27,.04-.41,.07Zm-.34-4.74c.66,.05,1.16,.12,1.67,.12,7.79,0,15.58,.05,23.36-.02,2.41-.02,4.85-.19,7.22-.59,3.76-.62,4.84-2.06,4.83-5.87-.01-5.95-1-7.01-6.92-7.05-8.77-.05-17.54-.04-26.31-.02-.84,0-1.75,.03-2.5,.34-.56,.23-1.28,.94-1.3,1.45-.11,3.84-.06,7.68-.06,11.63Z"/>
      <path class="cls-1" d="M195.6,571.38v11.61h-19.09v-61.15h2.12c17.5,0,34.99-.09,52.49,.08,3.68,.04,7.49,.58,10.99,1.68,8.16,2.58,13.13,8.45,13.6,16.95,.49,8.86,.45,17.82-.37,26.65-.86,9.28-6.02,13.89-15.25,15.23-2.97,.43-5.99,.68-9,.71-9.11,.09-18.22,0-27.32,.07-1.47,.01-2.2-.47-2.8-1.78-1.57-3.41-3.31-6.75-4.98-10.12-.13,.03-.25,.06-.38,.09Zm-.13-32.98v28.58c5.58,0,11.01,.01,16.44,0,5.63-.02,11.27,.08,16.89-.16,4.29-.18,6.85-2.47,7.59-6.63,.95-5.4,.81-10.84-.51-16.17-.96-3.89-2.77-5.62-6.73-5.69-11.13-.19-22.26-.1-33.39-.11-.05,0-.11,.06-.29,.18Z"/>
      <path class="cls-1" d="M282.95,549.94c0,5.33-.08,10.66,.05,15.99,.05,1.87,1.57,2.37,3.25,2.35,3.41-.03,6.81-.03,10.22-.04,10.35,0,20.7,0,31.05,0,3.4,0,4.34,.84,4.43,4.26,.07,2.68-.05,5.36-.18,8.04-.1,1.89-1.27,2.77-3.12,2.83-.59,.02-1.18,.03-1.77,.03-16.44,0-32.89,0-49.33-.01-1.57,0-3.17-.02-4.69-.33-5.66-1.15-9.08-5.7-9.21-12.49-.15-8.05-.07-16.11-.09-24.17,0-3.8-.05-7.6,.01-11.4,.11-7.58,4.95-12.65,12.55-12.7,17.1-.13,34.2-.07,51.29-.06,2.46,0,3.4,.84,3.48,3.24,.1,2.94,.11,5.89,.02,8.84-.07,2.23-.92,3.02-3.13,3.22-.72,.06-1.44,.04-2.16,.04-12.84,0-25.68-.01-38.52-.02-3.01,0-3.8,.78-3.87,3.84-.11,4.41-.02,4.51,4.44,4.51,10.68,0,21.36,.02,32.03-.03,1.2,0,1.9,.3,2.43,1.42,1.46,3.07,3.07,6.07,4.53,9.14,1.3,2.73,.78,3.56-2.25,3.56-9.43,.03-18.87,.02-28.3,0-2.54,0-5.58,.72-7.47-.41-1.82-1.09-2.47-4.15-3.63-6.35-.6-1.13-1.18-2.27-1.78-3.4-.1,.03-.21,.05-.31,.08Z"/>
      <path class="cls-1" d="M914.04,543.56c0,6.74,.34,13.5-.08,20.22-.69,11.12-7.91,18.56-19.01,18.97-12.95,.47-25.94,.47-38.88-.02-10.73-.4-17.87-7.7-18.7-18.41-.51-6.58-.34-13.21-.4-19.82-.06-6.16-.03-12.31,0-18.47,.01-3.28,.93-4.28,4.16-4.35,3.86-.08,7.73-.08,11.6,0,3.05,.06,3.9,.98,3.91,4.11,.02,10.68-.01,21.35,.04,32.03,0,1.48,.21,3.02,.66,4.43,.86,2.71,2.97,4.18,5.69,4.46,2.92,.3,5.88,.28,8.82,.31,4.52,.04,9.04,.05,13.56,0,6.33-.07,9.07-2.83,9.09-9.18,.03-10.22,0-20.44,.01-30.65,0-.85,.02-1.7,.08-2.55,.12-1.67,.98-2.8,2.68-2.82,4.71-.07,9.43-.13,14.13,.04,2.15,.07,2.9,1.21,2.91,3.64,.03,6.03,.01,12.05,.01,18.08-.1,0-.2,0-.3,0Z"/>
      <path class="cls-1" d="M77.27,543.91c0,5.7,.15,11.4-.06,17.09-.1,2.84-.53,5.77-1.38,8.48-2.7,8.64-9.24,12.65-17.81,13.29-6.97,.52-14,.36-21.01,.37-5.76,.01-11.54,.09-17.28-.3-11.78-.8-19.13-8.2-19.49-20.03-.37-12.37-.2-24.75-.21-37.13,0-2.99,.91-3.91,3.88-3.99,3.93-.1,7.86-.09,11.79-.02,3.06,.05,3.94,.95,3.95,4.08,.04,10.15,.03,20.3,.03,30.45,0,.65,0,1.31,0,1.96,.1,5.89,2.75,8.7,8.66,8.8,6.88,.12,13.76,.13,20.63,0,5.84-.11,8.56-3.03,8.58-8.91,.03-10.61,0-21.22,.01-31.83,0-3.8,.79-4.57,4.63-4.59,3.6-.02,7.21-.05,10.81,.02,3.45,.07,4.28,.95,4.28,4.36,0,5.96,0,11.92,0,17.88h-.03Z"/>
      <path class="cls-1" d="M493.1,560.35c-1.52,2.77-2.9,5.27-4.28,7.78-2.55,4.64-5.08,9.3-7.7,13.9-.35,.62-1.19,1.35-1.82,1.36-6.29,.1-12.57,.05-18.86,.04-.18,0-.37-.1-.85-.24,.22-.72,.31-1.48,.66-2.11,10.61-19.25,21.23-38.48,31.91-57.69,.32-.57,1.28-1.11,1.95-1.12,5.7-.09,11.39,0,17.09-.06,3.16-.03,5.8,1.12,7.8,3.47,1.43,1.68,2.77,3.5,3.83,5.43,8.98,16.33,17.89,32.7,26.79,49.08,.47,.86,.6,1.9,1,3.25h-2.89c-5.37,0-10.74-.05-16.11,.03-1.43,.02-2.27-.37-2.92-1.67-1.33-2.62-2.87-5.14-4.22-7.75-.56-1.09-1.26-1.43-2.46-1.42-7.2,.05-14.41,0-21.61,.06-1.36,.01-2.08-.34-2.62-1.66-1.42-3.5-3.03-6.94-4.69-10.69Zm22.45-2.52c-3.22-6.19-6.24-12.04-9.31-17.87-.83-1.57-1.46-.71-2.01,.29-2.92,5.33-5.85,10.65-8.76,15.98-.93,1.69-.64,2.21,1.3,2.22,5.49,.03,10.98,.03,16.48-.02,.69,0,1.39-.35,2.3-.6Z"/>
    </g>
  </g>
</svg>