<?xml version="1.0" encoding="UTF-8"?>
<svg id="Capa_2" data-name="Capa 2" xmlns="http://www.w3.org/2000/svg" viewBox="0 0 244.99 299.43">
  <defs>
    <style>
      .cls-1 {
        fill: #ff1d25;
      }
    </style>
  </defs>
  <g id="Logo">
    <path class="cls-1" d="M10.66,24.85L122.49,0l111.84,24.85c6.23,1.38,10.66,6.91,10.66,13.28V174.06c0,27.3-13.65,52.8-36.37,67.94l-86.13,57.42-86.13-57.42C13.65,226.87,0,201.38,0,174.08V38.14c0-6.38,4.43-11.9,10.66-13.28Zm111.84,111.25c18.79,0,34.03-15.23,34.03-34.03s-15.23-34.03-34.03-34.03-34.03,15.23-34.03,34.03,15.23,34.03,34.03,34.03Zm-60.88,68.05h121.76c-3.7-33.62-33.96-57.88-67.58-54.18-28.52,3.14-51.04,25.66-54.18,54.18Z"/>
  </g>
</svg>